<?xml version="1.0" standalone="no"?>
<!DOCTYPE svg PUBLIC "-//W3C//DTD SVG 20010904//EN"
 "http://www.w3.org/TR/2001/REC-SVG-20010904/DTD/svg10.dtd">
<svg version="1.0" xmlns="http://www.w3.org/2000/svg"
 width="90.000000pt" height="90.000000pt" viewBox="0 0 90.000000 90.000000"
 preserveAspectRatio="xMidYMid meet">
<metadata>
Created by potrace 1.14, written by Peter Selinger 2001-2017
</metadata>
<g transform="translate(0.000000,90.000000) scale(0.100000,-0.100000)"
fill="#000000" stroke="none">
<path d="M530 882 c0 -5 19 -28 41 -52 23 -24 53 -68 66 -96 16 -36 29 -51 38
-48 16 7 7 32 -34 99 -44 72 -111 130 -111 97z"/>
<path d="M324 825 c-8 -13 -13 -33 -10 -43 5 -15 82 -126 124 -177 39 -48 63
-85 56 -85 -9 0 -29 22 -151 167 -95 114 -130 136 -163 103 -11 -11 -20 -29
-20 -39 0 -19 55 -99 90 -131 26 -24 170 -189 170 -195 0 -13 -16 2 -122 110
-116 118 -140 132 -172 99 -32 -32 -19 -61 67 -151 45 -48 104 -108 132 -135
74 -72 41 -58 -40 17 -38 35 -76 65 -82 66 -7 1 -19 2 -25 3 -26 4 -48 -15
-48 -41 0 -28 61 -93 200 -213 41 -36 81 -71 88 -78 75 -69 160 -98 225 -76
87 30 172 110 203 189 16 43 16 57 5 159 -17 144 -15 170 14 235 30 64 31 77
6 91 -66 35 -150 -30 -151 -117 -1 -35 -21 -63 -47 -63 -25 0 -62 40 -172 187
-111 150 -142 171 -177 118z"/>
<path d="M490 828 c0 -7 13 -25 29 -41 16 -15 39 -47 51 -72 12 -25 28 -45 36
-45 15 0 11 17 -20 70 -39 66 -96 118 -96 88z"/>
<path d="M84 313 c29 -56 118 -134 134 -119 4 4 -12 23 -35 42 -23 19 -51 50
-63 69 -27 44 -59 50 -36 8z"/>
<path d="M10 304 c0 -40 133 -174 173 -174 15 0 6 29 -10 34 -27 9 -87 67
-118 114 -29 44 -45 53 -45 26z"/>
</g>
</svg>
